<svg width="50" height="44" viewBox="0 0 50 44" fill="none" xmlns="http://www.w3.org/2000/svg">
<path d="M49.5 0H0.5C0.225 0 0 0.225 0 0.5V4.5C0 4.775 0.225 5 0.5 5H49.5C49.775 5 50 4.775 50 4.5V0.5C50 0.225 49.775 0 49.5 0ZM49.5 39H0.5C0.225 39 0 39.225 0 39.5V43.5C0 43.775 0.225 44 0.5 44H49.5C49.775 44 50 43.775 50 43.5V39.5C50 39.225 49.775 39 49.5 39ZM49.5 19.5H0.5C0.225 19.5 0 19.725 0 20V24C0 24.275 0.225 24.5 0.5 24.5H49.5C49.775 24.5 50 24.275 50 24V20C50 19.725 49.775 19.5 49.5 19.5Z" fill="#fff"/>
</svg>
