<svg width="40" height="40" viewBox="0 0 40 40" fill="none" xmlns="http://www.w3.org/2000/svg">
<path d="M20 0C8.95536 0 0 8.95536 0 20C0 31.0446 8.95536 40 20 40C31.0446 40 40 31.0446 40 20C40 8.95536 31.0446 0 20 0ZM13.2812 23.0446C13.2812 24.2857 12.2768 25.2946 11.0357 25.2946C10.442 25.2946 9.87054 25.058 9.44643 24.6339C9.02679 24.2098 8.79018 23.6384 8.79018 23.0446C8.79018 21.8036 9.79464 20.7946 11.0357 20.7946H13.2812V23.0446ZM19.2634 29.0446C19.2634 30.2857 18.2589 31.2946 17.0179 31.2946C15.7768 31.2946 14.7723 30.2857 14.7723 29.0446V23.0446C14.7723 21.8036 15.7768 20.7946 17.0179 20.7946C17.6116 20.7946 18.183 21.0312 18.6071 21.4554C19.0312 21.8795 19.2634 22.4509 19.2634 23.0446V29.0446ZM17.0223 19.2946H11.0402C9.79911 19.2946 8.79464 18.2857 8.79464 17.0446C8.79464 15.8036 9.79911 14.7946 11.0402 14.7946H17.0223C18.2634 14.7946 19.2679 15.8036 19.2679 17.0446C19.2634 18.2902 18.2589 19.2946 17.0223 19.2946ZM17.0223 13.2946C16.4286 13.2946 15.8571 13.058 15.433 12.6339C15.0089 12.2098 14.7768 11.6429 14.7768 11.0446C14.7768 9.80357 15.7812 8.79464 17.0223 8.79464C18.2634 8.79464 19.2679 9.80357 19.2679 11.0446V13.2946H17.0223ZM20.7589 11.0446C20.7589 9.80357 21.7634 8.79464 23.0045 8.79464C24.2455 8.79464 25.25 9.80357 25.25 11.0446V17.0446C25.25 18.2857 24.2455 19.2946 23.0045 19.2946C21.7634 19.2946 20.7589 18.2857 20.7589 17.0446V11.0446ZM23.0045 31.2946C21.7634 31.2946 20.7589 30.2857 20.7589 29.0446V26.7946H23.0045C24.2455 26.7946 25.25 27.8036 25.25 29.0446C25.25 30.2857 24.2455 31.2946 23.0045 31.2946ZM28.9866 25.2946H23.0045C22.4107 25.2946 21.8393 25.058 21.4152 24.6339C20.9911 24.2098 20.7589 23.6429 20.7589 23.0446C20.7589 21.8036 21.7634 20.7946 23.0045 20.7946H28.9866C30.2277 20.7946 31.2321 21.8036 31.2321 23.0446C31.2321 24.2857 30.2277 25.2946 28.9866 25.2946ZM28.9866 19.2946H26.7411V17.0446C26.7411 15.8036 27.7455 14.7946 28.9866 14.7946C30.2277 14.7946 31.2321 15.8036 31.2321 17.0446C31.2321 18.2857 30.2277 19.2946 28.9866 19.2946Z" fill="white"/>
</svg>
